PathFileType	4	(X/Y/Z)	/Users/itak/Documents/Research/Walk-IL/dataset/trc/00425_00167.trc
DataRate	CameraRate	NumFrames	NumMarkers	Units	OrigDataRate	OrigDataStartFrame	OrigNumFrames
100.000000	100.000000	4	53	mm	100.000000	94	754
Frame#	Time	RPSI			LPSI			L3			STRN			T10			C7			CLAV			RBAK			LBAK			LSHO			LUPA			LAEL			LAOL			LWTS			LWPS			LFRA			LIFD			LHPS			LHTS			RSHO			RUPA			RAEL			RAOL			RWTS			RWPS			RFRA			RIFD			RHTS			RHPS			RBHD			LFHD			RFHD			LBHD			LHIP			RHIP			RASI			LASI			LKNE			LTHI			LANK			LTIP			LTOE			LMT1			LMT5			LHEE			RKNE			RTHI			RANK			RTIP			RTOE			RMT1			RMT5			RHEE			
		X1	Y1	Z1	X2	Y2	Z2	X3	Y3	Z3	X4	Y4	Z4	X5	Y5	Z5	X6	Y6	Z6	X7	Y7	Z7	X8	Y8	Z8	X9	Y9	Z9	X10	Y10	Z10	X11	Y11	Z11	X12	Y12	Z12	X13	Y13	Z13	X14	Y14	Z14	X15	Y15	Z15	X16	Y16	Z16	X17	Y17	Z17	X18	Y18	Z18	X19	Y19	Z19	X20	Y20	Z20	X21	Y21	Z21	X22	Y22	Z22	X23	Y23	Z23	X24	Y24	Z24	X25	Y25	Z25	X26	Y26	Z26	X27	Y27	Z27	X28	Y28	Z28	X29	Y29	Z29	X30	Y30	Z30	X31	Y31	Z31	X32	Y32	Z32	X33	Y33	Z33	X34	Y34	Z34	X35	Y35	Z35	X36	Y36	Z36	X37	Y37	Z37	X38	Y38	Z38	X39	Y39	Z39	X40	Y40	Z40	X41	Y41	Z41	X42	Y42	Z42	X43	Y43	Z43	X44	Y44	Z44	X45	Y45	Z45	X46	Y46	Z46	X47	Y47	Z47	X48	Y48	Z48	X49	Y49	Z49	X50	Y50	Z50	X51	Y51	Z51	X52	Y52	Z52	X53	Y53	Z53	

95	0.9400000000000001	-1144.734985351562	971.2879638671875	-453.1742553710938	-1063.513916015625	967.394287109375	-567.3084106445312	-1103.478271484375	1062.348876953125	-498.7684631347656	-873.0363159179688	1255.76513671875	-369.7706909179688	-1119.599487304688	1185.842041015625	-518.525390625	-1070.804565429688	1451.802612304688	-475.1924133300781	-903.2608642578125	1369.204956054688	-393.2671508789062	-1173.194458007812	1334.697265625	-423.3880004882812	-1047.130737304688	1406.983764648438	-578.7147827148438	-915.77685546875	1427.439819335938	-590.312744140625	-865.74951171875	1308.900390625	-676.5826416015625	-819.944091796875	1090.4677734375	-674.9403686523438	-922.123291015625	1074.781127929688	-682.8895874023438	-792.5274047851562	892.7718505859375	-574.9462890625	-784.6856079101562	874.1744384765625	-646.3635864257812	-796.798828125	1003.83447265625	-661.7987670898438	-786.389404296875	724.2591552734375	-567.6516723632812	-780.3236694335938	793.9255981445312	-635.5889892578125	-776.100830078125	803.8250732421875	-565.5133056640625	-1090.675415039062	1422.436157226562	-301.0582885742188	-1141.312255859375	1360.361083984375	-241.9360809326172	-1142.255126953125	1073.690795898438	-180.12890625	-1181.688110351562	1055.88232421875	-232.3367156982422	-1024.860473632812	877.173095703125	-193.8744812011719	-1103.984619140625	858.1827392578125	-158.9226684570312	-1138.939819335938	1015.387268066406	-169.4331970214844	-1020.927490234375	718.6005249023438	-191.2297668457031	-1009.689636230469	777.685791015625	-176.5466156005859	-1082.156982421875	772.0640258789062	-155.4818420410156	-1059.715454101562	1642.907104492188	-370.4508361816406	-861.2474365234375	1672.270629882812	-424.79541015625	-935.031494140625	1672.771728515625	-316.6410827636719	-972.093017578125	1645.267211914062	-525.8057861328125	-891.2547607421875	856.353515625	-583.7723999023438	-1130.136352539062	864.3240356445312	-272.3699340820312	-1007.288146972656	905.6884155273438	-260.7995910644531	-850.24658203125	895.2765502929688	-464.8241882324219	-939.6705322265625	432.5588989257812	-542.486328125	-895.18798828125	584.4854736328125	-550.6160278320312	-1022.779541015625	33.48012161254883	-556.61376953125	-951.8270263671875	279.4187622070312	-545.533935546875	-872.0781860351562	44.97394561767578	-376.1238403320312	-950.3441772460938	49.92009735107422	-392.7792358398438	-889.6041259765625	47.5180549621582	-486.526611328125	-1096.651733398438	32.39109039306641	-544.2575073242188	-1095.359252929688	463.1379699707031	-293.7764282226562	-1095.588134765625	727.1083374023438	-242.28369140625	-1120.839599609375	44.35691833496094	-330.7397155761719	-1103.862670898438	317.4919738769531	-288.56689453125	-908.551513671875	47.66614532470703	-267.6143798828125	-946.3609619140625	52.70516967773438	-330.7667541503906	-1014.748596191406	49.33040237426758	-246.1576690673828	-1155.2392578125	32.46607208251953	-404.7501525878906	
96	0.9500000000000001	-1144.58642578125	971.3377075195312	-453.0107116699219	-1063.432373046875	967.453369140625	-567.2606811523438	-1103.349609375	1062.348999023438	-498.6421813964844	-872.8760375976562	1255.778686523438	-369.7308044433594	-1119.456420898438	1185.815795898438	-518.42041015625	-1070.609741210938	1451.806274414062	-475.208251953125	-903.0872802734375	1369.201049804688	-393.2745056152344	-1173.058959960938	1334.697631835938	-423.3197326660156	-1047.027221679688	1406.957763671875	-578.6820068359375	-915.667724609375	1427.403930664062	-590.3406982421875	-865.616943359375	1308.8359375	-676.540771484375	-819.8781127929688	1090.41357421875	-674.8770751953125	-921.9756469726562	1074.704223632812	-682.8108520507812	-792.4384155273438	892.7515258789062	-574.8326416015625	-784.6341552734375	874.07958984375	-646.2039794921875	-796.7265625	1003.7734375	-661.7113037109375	-786.1868286132812	724.2403564453125	-567.4537963867188	-780.2861938476562	793.8782958984375	-635.378173828125	-776.0689086914062	803.760986328125	-565.3544311523438	-1090.512939453125	1422.462768554688	-301.0487365722656	-1141.127685546875	1360.392333984375	-241.8990325927734	-1142.122924804688	1073.75634765625	-179.9883270263672	-1181.508544921875	1055.934204101562	-232.2190551757812	-1024.73486328125	877.20703125	-193.6708831787109	-1103.870239257812	858.2361450195312	-158.73681640625	-1138.79541015625	1015.467712402344	-169.2845153808594	-1020.861206054688	718.6304931640625	-190.9949035644531	-1009.6103515625	777.7400512695312	-176.2958831787109	-1082.0693359375	772.15380859375	-155.2514495849609	-1059.40478515625	1642.95263671875	-370.4364929199219	-861.0008544921875	1672.244750976562	-424.8635559082031	-934.7640991210938	1672.812866210938	-316.6910095214844	-971.8516845703125	1645.256958007812	-525.8724365234375	-891.3516845703125	856.4607543945312	-583.865478515625	-1129.995361328125	864.3008422851562	-272.2807312011719	-1007.190856933594	905.6366577148438	-260.7809448242188	-850.0703125	895.3324584960938	-464.7310791015625	-939.37744140625	432.5303649902344	-542.1846313476562	-894.9542846679688	584.473388671875	-550.3200073242188	-1022.782653808594	33.50914001464844	-556.5928344726562	-951.6755981445312	279.3091125488281	-545.3613891601562	-872.1351928710938	44.9630241394043	-376.0461730957031	-950.386474609375	49.88913726806641	-392.7218933105469	-889.677001953125	47.58078002929688	-486.44921875	-1096.648071289062	32.39651107788086	-544.2570190429688	-1095.406616210938	463.1176452636719	-293.7309875488281	-1095.486206054688	727.0514526367188	-242.2052307128906	-1120.927368164062	44.32133483886719	-330.6494445800781	-1103.956787109375	317.4588012695312	-288.5245971679688	-908.5823974609375	47.67545318603516	-267.6324157714844	-946.366943359375	52.7226676940918	-330.796875	-1014.776550292969	49.32461929321289	-246.1360778808594	-1155.270874023438	32.41039657592773	-404.7229614257812	
97	0.96	-1144.44189453125	971.3924560546875	-452.8439636230469	-1063.357421875	967.5213012695312	-567.215087890625	-1103.218139648438	1062.355346679688	-498.5210571289062	-872.710205078125	1255.795288085938	-369.6921691894531	-1119.311401367188	1185.791870117188	-518.3154296875	-1070.4052734375	1451.811401367188	-475.2293090820312	-902.9103393554688	1369.19873046875	-393.2804870605469	-1172.914306640625	1334.704223632812	-423.2590637207031	-1046.911987304688	1406.938598632812	-578.6515502929688	-915.5548706054688	1427.38037109375	-590.3668823242188	-865.4812622070312	1308.77978515625	-676.5018920898438	-819.7906494140625	1090.369995117188	-674.820556640625	-921.845703125	1074.639038085938	-682.7464599609375	-792.3588256835938	892.7161254882812	-574.7366943359375	-784.5423583984375	874.0068359375	-646.0616455078125	-796.6297607421875	1003.7216796875	-661.63037109375	-786.0161743164062	724.2207641601562	-567.29541015625	-780.237548828125	793.8214111328125	-635.207275390625	-776.0042114257812	803.7069702148438	-565.221435546875	-1090.333618164062	1422.49560546875	-301.0462951660156	-1140.935424804688	1360.427490234375	-241.8677825927734	-1141.989379882812	1073.8291015625	-179.8374176025391	-1181.3291015625	1055.991333007812	-232.0884094238281	-1024.5888671875	877.25146484375	-193.4669952392578	-1103.749267578125	858.2906494140625	-158.5442810058594	-1138.641967773438	1015.553649902344	-169.1237487792969	-1020.792724609375	718.6712646484375	-190.7329711914062	-1009.518493652344	777.7968139648438	-176.0492553710938	-1081.97509765625	772.2622680664062	-155.0062103271484	-1059.060791015625	1643.00732421875	-370.4147033691406	-860.7208251953125	1672.209594726562	-424.9245910644531	-934.4755249023438	1672.846923828125	-316.7258911132812	-971.5903930664062	1645.248291015625	-525.9227905273438	-891.541748046875	856.59326171875	-584.027587890625	-1129.843139648438	864.27978515625	-272.1896667480469	-1007.078430175781	905.57958984375	-260.7797241210938	-849.9041137695312	895.3885498046875	-464.6595764160156	-939.0274658203125	432.5100402832031	-541.8487548828125	-894.6886596679688	584.466064453125	-550.0242919921875	-1022.782836914062	33.53996658325195	-556.5744018554688	-951.5075073242188	279.1994018554688	-545.1903076171875	-872.197265625	44.95064163208008	-375.9634704589844	-950.4285888671875	49.85968017578125	-392.66650390625	-889.7454223632812	47.64192199707031	-486.3724365234375	-1096.645385742188	32.40422058105469	-544.2584228515625	-1095.454223632812	463.0979919433594	-293.6941223144531	-1095.375366210938	726.9912719726562	-242.1342010498047	-1121.012084960938	44.28511810302734	-330.5662841796875	-1104.052734375	317.4285888671875	-288.4837341308594	-908.6138305664062	47.68707656860352	-267.6451416015625	-946.3758544921875	52.7410888671875	-330.8279724121094	-1014.805053710938	49.32041931152344	-246.1163024902344	-1155.303100585938	32.35294342041016	-404.6957702636719	
98	0.97	-1144.296020507812	971.4490966796875	-452.6849670410156	-1063.287963867188	967.5968017578125	-567.1715087890625	-1103.081298828125	1062.366455078125	-498.40869140625	-872.5409545898438	1255.813232421875	-369.6553649902344	-1119.1630859375	1185.770385742188	-518.2135009765625	-1070.194213867188	1451.81787109375	-475.25439453125	-902.7318725585938	1369.1982421875	-393.2853698730469	-1172.758056640625	1334.7177734375	-423.2055053710938	-1046.781860351562	1406.9267578125	-578.6255493164062	-915.4370727539062	1427.369262695312	-590.3914184570312	-865.3458862304688	1308.731567382812	-676.468505859375	-819.6826171875	1090.336669921875	-674.7723999023438	-921.7293090820312	1074.582641601562	-682.6936645507812	-792.2941284179688	892.662353515625	-574.6585083007812	-784.4073486328125	873.9606323242188	-645.9349365234375	-796.5081787109375	1003.678588867188	-661.556884765625	-785.8760375976562	724.1992797851562	-567.174072265625	-780.1688232421875	793.7568969726562	-635.0750122070312	-775.9003295898438	803.6641845703125	-565.1123657226562	-1090.135009765625	1422.533081054688	-301.0517578125	-1140.736328125	1360.46728515625	-241.8434143066406	-1141.850463867188	1073.906860351562	-179.6818695068359	-1181.149780273438	1056.052490234375	-231.9499969482422	-1024.422607421875	877.305419921875	-193.2690277099609	-1103.618286132812	858.34619140625	-158.3497161865234	-1138.479858398438	1015.642517089844	-168.9557189941406	-1020.717407226562	718.7219848632812	-190.4523315429688	-1009.412536621094	777.85400390625	-175.815673828125	-1081.8720703125	772.385498046875	-154.7505798339844	-1058.692626953125	1643.075561523438	-370.3921203613281	-860.4043579101562	1672.16650390625	-424.9806213378906	-934.1624755859375	1672.870239257812	-316.7468872070312	-971.3132934570312	1645.24365234375	-525.957275390625	-891.806884765625	856.7443237304688	-584.2494506835938	-1129.680297851562	864.2616577148438	-272.0967712402344	-1006.953491210938	905.5176391601562	-260.8004150390625	-849.7457885742188	895.44287109375	-464.6103820800781	-938.6458129882812	432.5	-541.4966430664062	-894.3916625976562	584.4633178710938	-549.7391967773438	-1022.778137207031	33.57294845581055	-556.5575561523438	-951.31982421875	279.1011657714844	-545.0197143554688	-872.2611083984375	44.93629455566406	-375.8773803710938	-950.4696044921875	49.83186340332031	-392.6153564453125	-889.80712890625	47.69786834716797	-486.2995910644531	-1096.642822265625	32.41323089599609	-544.2592163085938	-1095.500854492188	463.0797119140625	-293.6651611328125	-1095.254760742188	726.9324340820312	-242.0716552734375	-1121.087768554688	44.24516677856445	-330.4971618652344	-1104.149291992188	317.4022521972656	-288.4442138671875	-908.6446533203125	47.70113372802734	-267.6525268554688	-946.3908081054688	52.76127243041992	-330.8567504882812	-1014.833618164062	49.31706237792969	-246.0984649658203	-1155.336547851562	32.29512786865234	-404.6674499511719	
